<svg width="61" height="60" viewBox="0 0 61 60" fill="none" xmlns="http://www.w3.org/2000/svg">
<rect width="61" height="60" rx="11" fill="#E3E3FF"/>
<path fill-rule="evenodd" clip-rule="evenodd" d="M24.75 18.5H37.25C38.6307 18.5 39.75 19.6193 39.75 21V41C39.75 42.3807 38.6307 43.5 37.25 43.5H24.75C23.3693 43.5 22.25 42.3807 22.25 41V21C22.25 19.6193 23.3693 18.5 24.75 18.5ZM24.75 21V41H37.25V21H24.75ZM32.25 38.5C32.25 39.1904 31.6904 39.75 31 39.75C30.3096 39.75 29.75 39.1904 29.75 38.5C29.75 37.8096 30.3096 37.25 31 37.25C31.6904 37.25 32.25 37.8096 32.25 38.5Z" fill="#3735C8"/>
</svg>
