<svg width="61" height="60" viewBox="0 0 61 60" fill="none" xmlns="http://www.w3.org/2000/svg">
<rect width="61" height="60" rx="11" fill="#FEF1DD"/>
<path fill-rule="evenodd" clip-rule="evenodd" d="M36.4775 24.75L38.7804 29.3559L42.25 31.669V36H40.7866C40.2718 34.5435 38.8828 33.5 37.25 33.5C35.6172 33.5 34.2282 34.5435 33.7134 36H28.2866C27.7718 34.5435 26.3828 33.5 24.75 33.5C23.1172 33.5 21.7282 34.5435 21.2134 36H19.75V24.75H36.4775ZM42.25 38.5H40.7866C40.2718 39.9565 38.8828 41 37.25 41C35.6172 41 34.2282 39.9565 33.7134 38.5H28.2866C27.7718 39.9565 26.3828 41 24.75 41C23.1172 41 21.7282 39.9565 21.2134 38.5H19.75C18.3693 38.5 17.25 37.3807 17.25 36V24.75C17.25 23.3693 18.3693 22.25 19.75 22.25H36.4775C37.4244 22.25 38.29 22.785 38.7135 23.632L40.7196 27.6441L44.75 30.331V36C44.75 37.3807 43.6307 38.5 42.25 38.5ZM26 37.25C26 37.9404 25.4404 38.5 24.75 38.5C24.0596 38.5 23.5 37.9404 23.5 37.25C23.5 36.5596 24.0596 36 24.75 36C25.4404 36 26 36.5596 26 37.25ZM38.5 37.25C38.5 37.9404 37.9404 38.5 37.25 38.5C36.5596 38.5 36 37.9404 36 37.25C36 36.5596 36.5596 36 37.25 36C37.9404 36 38.5 36.5596 38.5 37.25Z" fill="#FFB650"/>
</svg>
