<svg width="44" height="44" viewBox="0 0 44 44" fill="none" xmlns="http://www.w3.org/2000/svg">
<rect width="44" height="44" rx="11" fill="#3D60AE"/>
<path d="M22.0001 34C23.7345 34 25.1415 32.657 25.1415 31H18.8587C18.8587 32.657 20.2656 34 22.0001 34ZM32.5773 26.9823C31.6285 26.0092 29.8533 24.5453 29.8533 19.75C29.8533 16.1078 27.1779 13.1922 23.5705 12.4769V11.5C23.5705 10.6717 22.8673 10 22.0001 10C21.1328 10 20.4296 10.6717 20.4296 11.5V12.4769C16.8222 13.1922 14.1469 16.1078 14.1469 19.75C14.1469 24.5453 12.3716 26.0092 11.4229 26.9823C11.1282 27.2847 10.9976 27.6461 11.0001 28C11.0055 28.7687 11.6375 29.5 12.5764 29.5H31.4237C32.3627 29.5 32.9952 28.7687 33.0001 28C33.0025 27.6461 32.8719 27.2842 32.5773 26.9823Z" fill="white"/>
<circle cx="33" cy="13" r="7" fill="#F11212"/>
</svg>
