<svg width="61" height="60" viewBox="0 0 61 60" fill="none" xmlns="http://www.w3.org/2000/svg">
<rect width="61" height="60" rx="11" fill="#F2DEFC"/>
<path fill-rule="evenodd" clip-rule="evenodd" d="M31 43.75C23.4061 43.75 17.25 37.5939 17.25 30C17.25 22.4061 23.4061 16.25 31 16.25C38.5939 16.25 44.75 22.4061 44.75 30C44.75 37.5939 38.5939 43.75 31 43.75ZM31 41.25C37.2132 41.25 42.25 36.2132 42.25 30C42.25 23.7868 37.2132 18.75 31 18.75C24.7868 18.75 19.75 23.7868 19.75 30C19.75 36.2132 24.7868 41.25 31 41.25ZM32.25 33.75C32.25 35.8211 33.9289 37.5 36 37.5C38.0711 37.5 39.75 35.8211 39.75 33.75C39.75 31.6789 38.0711 30 36 30C33.9289 30 32.25 31.6789 32.25 33.75ZM36 35C36.6904 35 37.25 34.4404 37.25 33.75C37.25 33.0596 36.6904 32.5 36 32.5C35.3096 32.5 34.75 33.0596 34.75 33.75C34.75 34.4404 35.3096 35 36 35ZM22.25 26.25C22.25 28.3211 23.9289 30 26 30C28.0711 30 29.75 28.3211 29.75 26.25C29.75 24.1789 28.0711 22.5 26 22.5C23.9289 22.5 22.25 24.1789 22.25 26.25ZM26 27.5C26.6904 27.5 27.25 26.9404 27.25 26.25C27.25 25.5596 26.6904 25 26 25C25.3096 25 24.75 25.5596 24.75 26.25C24.75 26.9404 25.3096 27.5 26 27.5ZM28.6475 37.5L36.1475 22.5H33.3525L25.8525 37.5H28.6475Z" fill="#A03ED5"/>
</svg>
