<svg width="61" height="60" viewBox="0 0 61 60" fill="none" xmlns="http://www.w3.org/2000/svg">
<rect width="61" height="60" rx="11" fill="#FBDED8"/>
<path fill-rule="evenodd" clip-rule="evenodd" d="M23.5891 20.0032C23.3671 20.0027 23.1531 20.0278 22.9497 20.0756C22.6709 19.4612 22.3027 18.9099 21.8839 18.4911C21.173 17.7803 20.0519 17.5 18.5 17.5V20C19.4481 20 19.9936 20.1364 20.1161 20.2589C20.5886 20.7313 21 21.6913 21 22.5L21.0126 22.6768L22.2374 31.2506C20.1879 31.357 18.6002 32.9485 18.5015 34.9381L18.5 36.25C18.621 38.3049 20.2034 39.8857 22.179 39.998L22.4628 39.9984C22.9772 41.4557 24.3666 42.5 26 42.5C27.6328 42.5 29.0218 41.4565 29.5366 40H32.4634C32.9782 41.4565 34.3672 42.5 36 42.5C38.0711 42.5 39.75 40.8211 39.75 38.75C39.75 36.6789 38.0711 35 36 35C34.3672 35 32.9782 36.0435 32.4634 37.5H29.5366C29.0218 36.0435 27.6328 35 26 35C24.3672 35 22.9782 36.0435 22.4634 37.5H22.25C21.6125 37.4617 21.0407 36.8905 20.9978 36.1751L21 35C21.0337 34.3516 21.6016 33.7837 22.3119 33.7485L24.7796 33.7491L24.7975 33.75H37.3961L37.5806 33.6915C38.5283 33.3907 39.2871 32.677 39.6463 31.7532L39.778 31.4925L40.2058 30.6448C40.6485 29.7674 41.0911 28.8884 41.5225 28.0298C42.579 25.9263 43.2435 24.5896 43.3906 24.2613C44.1463 22.5756 42.6155 21.2781 41.0509 21.2504L23.5891 20.0032ZM36.9618 31.25H24.8911C24.8108 31.2277 24.7497 31.1597 24.7377 31.075L23.5128 22.5009L40.8667 23.7437C40.5631 24.3629 40.0111 25.4689 39.2885 26.9076L39.2704 26.9437C38.8579 27.7648 38.4158 28.6426 37.9738 29.5188L37.5464 30.3654L37.3844 30.686L37.3235 30.8278C37.2582 31.0097 37.1285 31.1592 36.9618 31.25ZM36 40C36.6904 40 37.25 39.4404 37.25 38.75C37.25 38.0596 36.6904 37.5 36 37.5C35.3096 37.5 34.75 38.0596 34.75 38.75C34.75 39.4404 35.3096 40 36 40ZM27.25 38.75C27.25 39.4404 26.6904 40 26 40C25.3096 40 24.75 39.4404 24.75 38.75C24.75 38.0596 25.3096 37.5 26 37.5C26.6904 37.5 27.25 38.0596 27.25 38.75Z" fill="#FF674D"/>
</svg>
