<svg width="61" height="60" viewBox="0 0 61 60" fill="none" xmlns="http://www.w3.org/2000/svg">
<rect width="61" height="60" rx="11" fill="#FFDDDC"/>
<path fill-rule="evenodd" clip-rule="evenodd" d="M41 23.5H36V21.0735C36 19.6677 34.8972 18.5 33.5 18.5H21C19.6028 18.5 18.5 19.6677 18.5 21.0735V40.9265C18.5 42.3323 19.6028 43.5 21 43.5H33.5C34.8972 43.5 36 42.3323 36 40.9265V38.5H41C42.3807 38.5 43.5 37.3807 43.5 36V26C43.5 24.6193 42.3807 23.5 41 23.5ZM36 29.75H41V36H36V29.75ZM33.5 40.9265V21.0735C33.5 21.0486 33.4967 21.0313 33.4946 21.0198C33.4919 21.0054 33.4908 21 33.5 21H21C21.0092 21 21.0081 21.0054 21.0054 21.0198C21.0033 21.0313 21 21.0486 21 21.0735V40.9265C21 40.9514 21.0033 40.9687 21.0054 40.9802C21.0081 40.9946 21.0092 41 21 41H33.5C33.4908 41 33.4919 40.9946 33.4946 40.9802C33.4967 40.9687 33.5 40.9514 33.5 40.9265ZM22.25 37.25V39.75H24.75V37.25H22.25ZM26 39.75V37.25H28.5V39.75H26ZM29.75 37.25V39.75H32.25V37.25H29.75ZM22.25 36V33.5H24.75V36H22.25ZM26 33.5V36H28.5V33.5H26ZM29.75 36V33.5H32.25V36H29.75ZM32.25 32.25V22.25H22.25V32.25H32.25ZM24.75 24.75V29.75H29.75V24.75H24.75ZM41 26V27.25H36V26H41Z" fill="#CC1616"/>
</svg>
